<?xml version="1.0" encoding="UTF-8" standalone="no"?>
<!-- Created with Inkscape (http://www.inkscape.org/) -->
<svg
   xmlns:svg="http://www.w3.org/2000/svg"
   xmlns="http://www.w3.org/2000/svg"
   version="1.0"
   width="751.65143"
   height="127.7487"
   id="svg2523">
  <defs
     id="defs2525">
    <clipPath
       id="clipPath65">
      <path
         d="M 206.9,54.946 L 380.315,54.946 L 380.315,85.89 L 206.9,85.89 L 206.9,54.946 z"
         id="path67" />
    </clipPath>
  </defs>
  <g
     transform="translate(-162.74571,-117.34629)"
     id="layer1">
    <g
       transform="matrix(6.5667059,0,0,-6.5667059,-1389.4594,637.2718)"
       clip-path="url(#clipPath65)"
       id="g63">
      <path
         d="M 246.101,79.176 C 240.73,79.176 236.375,74.82 236.375,69.449 C 236.375,64.077 240.73,59.722 246.101,59.722 C 251.475,59.722 255.83,64.077 255.83,69.449 C 255.83,74.82 251.475,79.176 246.101,79.176"
         id="path69"
         style="fill:#e64414;fill-opacity:1;fill-rule:nonzero;stroke:none" />
      <path
         d="M 246.101,60.773 C 244.215,60.773 242.685,62.303 242.685,64.191 C 242.685,66.078 244.215,67.609 246.101,67.609 C 247.99,67.609 249.521,66.078 249.521,64.191 C 249.521,62.303 247.99,60.773 246.101,60.773"
         id="path71"
         style="fill:#ffffff;fill-opacity:1;fill-rule:nonzero;stroke:none" />
      <path
         d="M 272.05,78.161 L 258.012,78.161 L 257.823,73.934 L 258.511,73.934 L 258.519,74.04 C 258.672,75.939 259.563,76.823 261.32,76.823 L 263.76,76.823 L 263.76,64.246 C 263.76,62.068 263.76,61.55 261.449,61.55 L 261.334,61.55 L 261.334,60.857 L 268.837,60.857 L 268.837,61.55 L 268.723,61.55 C 266.413,61.55 266.413,62.068 266.413,64.246 L 266.413,76.823 L 268.852,76.823 C 270.61,76.823 271.5,75.939 271.653,74.04 L 271.662,73.934 L 272.35,73.934 L 272.159,78.161 L 272.05,78.161"
         id="path73"
         style="fill:#000000;fill-opacity:1;fill-rule:nonzero;stroke:none" />
      <path
         d="M 287.344,78.161 L 274.128,78.161 L 274.128,77.468 L 274.242,77.468 C 276.552,77.468 276.552,76.95 276.552,74.771 L 276.552,64.246 C 276.552,62.068 276.552,61.55 274.242,61.55 L 274.128,61.55 L 274.128,60.857 L 287.556,60.857 L 289.079,65.367 L 288.363,65.367 L 288.33,65.311 C 286.991,63.018 286.176,62.015 283.992,62.015 L 280.483,62.015 C 279.432,62.015 279.206,62.223 279.206,63.189 L 279.206,69.317 L 282.523,69.317 C 284.531,69.317 285.197,69.129 285.401,66.894 L 285.409,66.789 L 286.091,66.789 L 286.091,72.975 L 285.407,72.975 L 285.4,72.868 C 285.252,70.672 284.535,70.475 282.523,70.475 L 279.206,70.475 L 279.206,77.003 L 283.451,77.003 C 285.91,77.003 286.482,76.77 286.949,74.286 L 286.966,74.192 L 287.7,74.192 L 287.452,78.161 L 287.344,78.161"
         id="path75"
         style="fill:#000000;fill-opacity:1;fill-rule:nonzero;stroke:none" />
      <path
         d="M 305.555,78.548 L 305.023,78.548 L 305.004,78.454 C 304.927,78.048 304.653,77.361 304.11,77.361 C 303.901,77.361 303.66,77.482 303.465,77.579 L 303.414,77.607 C 302.103,78.249 301,78.521 299.726,78.521 C 294.676,78.521 290.869,74.502 290.869,69.173 C 290.869,64.13 294.398,60.47 299.261,60.47 C 302.544,60.47 304.754,61.84 306.43,64.914 L 306.479,65.007 L 305.912,65.384 L 305.848,65.293 C 304.326,63.086 302.921,61.808 300.241,61.808 C 298.774,61.808 293.984,62.34 293.984,69.2 C 293.984,74.345 296.169,77.416 299.829,77.416 C 302.679,77.416 304.568,75.797 305.445,72.599 L 305.468,72.517 L 306.063,72.517 L 305.662,78.548 L 305.555,78.548"
         id="path77"
         style="fill:#000000;fill-opacity:1;fill-rule:nonzero;stroke:none" />
      <path
         d="M 311.867,67.74 C 311.994,68.033 314.467,73.777 314.659,74.222 C 314.848,73.774 317.279,68.031 317.402,67.74 L 311.867,67.74 z M 324.44,61.55 C 322.707,61.62 322.194,62.861 321.601,64.302 L 321.497,64.548 L 315.664,78.548 L 315.048,78.548 L 308.88,64.085 C 308.125,62.323 307.625,61.675 306.318,61.55 L 306.215,61.539 L 306.215,60.857 L 311.807,60.857 L 311.807,61.54 L 311.703,61.55 C 310.636,61.635 309.821,61.766 309.821,62.57 C 309.821,63.067 310.241,63.958 310.378,64.25 C 310.379,64.253 311.219,66.203 311.382,66.584 L 317.836,66.584 C 317.891,66.454 318.733,64.511 318.733,64.511 L 318.849,64.233 C 319.058,63.734 319.344,63.048 319.344,62.596 C 319.344,61.871 318.927,61.608 317.697,61.55 L 317.59,61.544 L 317.59,60.857 L 324.549,60.857 L 324.549,61.545 L 324.44,61.55"
         id="path79"
         style="fill:#000000;fill-opacity:1;fill-rule:nonzero;stroke:none" />
      <path
         d="M 343.255,78.161 L 337.182,78.161 L 337.182,77.468 L 337.295,77.468 C 339.609,77.468 339.609,76.95 339.609,74.771 L 339.609,65.535 C 339.312,65.896 329.329,78.161 329.329,78.161 L 324.518,78.161 L 324.518,77.468 L 324.632,77.468 C 326.243,77.468 326.947,76.94 327.896,75.761 L 327.896,64.246 C 327.896,62.068 327.896,61.55 325.586,61.55 L 325.473,61.55 L 325.473,60.857 L 331.658,60.857 L 331.658,61.55 L 331.545,61.55 C 329.234,61.55 329.234,62.068 329.234,64.246 L 329.234,74.151 C 329.528,73.791 340.311,60.572 340.311,60.572 L 340.945,60.572 L 340.945,74.771 C 340.945,76.95 340.945,77.468 343.255,77.468 L 343.369,77.468 L 343.369,78.161 L 343.255,78.161"
         id="path81"
         style="fill:#000000;fill-opacity:1;fill-rule:nonzero;stroke:none" />
      <path
         d="M 350.839,64.108 C 350.839,62.221 349.31,60.691 347.422,60.691 C 345.534,60.691 344.004,62.221 344.004,64.108 C 344.004,65.995 345.534,67.527 347.422,67.527 C 349.31,67.527 350.839,65.995 350.839,64.108"
         id="path83"
         style="fill:#e64414;fill-opacity:1;fill-rule:nonzero;stroke:none" />
    </g>
  </g>
</svg>
